<?xml version="1.0" encoding="UTF-8" standalone="no"?>
<!DOCTYPE svg PUBLIC "-//W3C//DTD SVG 1.1//EN" "http://www.w3.org/Graphics/SVG/1.1/DTD/svg11.dtd">
<svg width="100%" height="100%" viewBox="0 0 166 166" version="1.1" xmlns="http://www.w3.org/2000/svg" xmlns:xlink="http://www.w3.org/1999/xlink" xml:space="preserve" xmlns:serif="http://www.serif.com/" style="fill-rule:evenodd;clip-rule:evenodd;stroke-linejoin:round;stroke-miterlimit:2;">
    <g transform="matrix(1,0,0,1,-719.142,-84.9063)">
        <g transform="matrix(0.516471,0,0,0.516471,691.977,22.828)">
            <path d="M204.596,120.197L204.596,216.957L141.885,279.668L204.596,342.378L204.596,439.803C119.997,435.626 52.596,365.622 52.596,280C52.596,194.378 119.997,124.374 204.596,120.197ZM372.399,288C368.36,369.94 302.547,435.756 220.596,439.803L220.596,342.378L274.974,288L372.399,288ZM344.805,312L284.915,312L244.596,352.319L244.596,412.207C293.982,400.285 332.89,361.377 344.805,312ZM180.596,147.799C120.953,162.191 76.596,215.959 76.596,280C76.596,344.041 120.953,397.809 180.596,412.201L180.596,352.319L107.944,279.668L180.596,207.016L180.596,147.799ZM275.639,272L220.596,216.957L220.596,120.197C302.547,124.244 368.36,190.06 372.399,272L275.639,272ZM244.596,147.793L244.596,207.016L285.58,248L344.805,248C332.887,198.62 293.979,159.712 244.596,147.793Z"/>
        </g>
    </g>
</svg>
